<svg xmlns="http://www.w3.org/2000/svg" viewBox="0 0 400 300" role="img" aria-label="Global telemedicine network">
  <defs>
    <linearGradient id="bg4" x1="0" x2="1">
      <stop offset="0%" stop-color="#edf8ff"/>
      <stop offset="100%" stop-color="#d9ecf3"/>
    </linearGradient>
  </defs>
  <rect width="400" height="300" fill="url(#bg4)"/>
  <g opacity="0.8" stroke="#7ab5d9" stroke-width="2" fill="none">
    <path d="M65 95c40-42 84-55 134-48 35 5 64 24 96 64"/>
    <path d="M44 170c38 28 80 42 140 42 52 0 94-14 140-44"/>
    <path d="M94 60l110 89 109-97"/>
    <path d="M78 220l116-92 117 93"/>
  </g>
  <circle cx="72" cy="98" r="24" fill="#eaf6ff" stroke="#73b5d8" stroke-width="2"/>
  <circle cx="214" cy="96" r="26" fill="#eaf6ff" stroke="#73b5d8" stroke-width="2"/>
  <circle cx="310" cy="168" r="26" fill="#eaf6ff" stroke="#73b5d8" stroke-width="2"/>
  <circle cx="120" cy="214" r="24" fill="#eaf6ff" stroke="#73b5d8" stroke-width="2"/>
  <g>
    <circle cx="72" cy="98" r="7" fill="#77bddc"/>
    <circle cx="214" cy="96" r="7" fill="#77bddc"/>
    <circle cx="310" cy="168" r="7" fill="#77bddc"/>
    <circle cx="120" cy="214" r="7" fill="#77bddc"/>
  </g>
  <g transform="translate(200 116)">
    <rect x="-42" y="-55" width="84" height="110" rx="18" fill="#f6fbff" stroke="#8cbdd7" stroke-width="2"/>
    <circle cx="0" cy="-20" r="18" fill="#f2d1ab"/>
    <path d="M-22 30c9-18 22-27 38-27s28 8 38 27v22H-22V30z" fill="#9fcce6"/>
    <path d="M-2 -38l8 11 8-11" fill="none" stroke="#7db4d8" stroke-width="2" stroke-linecap="round"/>
  </g>
  <g transform="translate(70 138)">
    <rect x="0" y="0" width="70" height="46" rx="8" fill="#f9fcff" stroke="#a2cfe9" stroke-width="2"/>
    <circle cx="20" cy="23" r="7" fill="#e7c4a5"/>
    <path d="M10 32c8-8 20-8 28 0" fill="none" stroke="#8dbdd7" stroke-width="2.5" stroke-linecap="round"/>
  </g>
  <g transform="translate(300 62)">
    <rect x="0" y="0" width="70" height="46" rx="8" fill="#f9fcff" stroke="#a2cfe9" stroke-width="2"/>
    <circle cx="20" cy="23" r="7" fill="#e7c4a5"/>
    <path d="M10 32c8-8 20-8 28 0" fill="none" stroke="#8dbdd7" stroke-width="2.5" stroke-linecap="round"/>
  </g>
</svg>
